<!-- icon666.com - MILLIONS vector ICONS FREE --><svg id="Capa_1" enable-background="new 0 0 512 512" viewBox="0 0 512 512" xmlns="http://www.w3.org/2000/svg"><g id="XMLID_903_"><path id="XMLID_929_" d="m477.258 304.593 2.606-29.799c-37.181-3.233-67.08-19.328-94.095-50.654l-22.747 19.503c32.006 37.112 69.373 57.049 114.236 60.95z"></path><path id="XMLID_930_" d="m481.211 482.088h-66.084v-27.873c-10.155-.904-20.173-2.475-30-4.694v32.567h-66.084v-59.044c-10.504-6.3-20.538-13.475-30-21.503v80.547h-66.084v-129.249c-9.61-3.756-19.662-6.427-30-7.929v137.178h-66.084v-138.622h-30v138.621h-66.086v-138.621h-30v168.534h510.422v-56.861h-30z"></path><path id="XMLID_931_" d="m344.584 296.539-8.46-8.277c-18.247-17.853-39.528-31.797-63.253-41.444-23.719-9.646-48.745-14.536-74.385-14.536h-197.697v81.271h172.133c43.856 0 85.21 16.776 116.442 47.238l8.89 8.67c36.872 35.961 85.674 55.765 137.419 55.765h75.538v-81.958l-50.216.686c-43.872-.054-85.214-16.894-116.411-47.415z"></path><path id="XMLID_936_" d="m351.159 69.962h-30v42.106c11.207.959 21.514 5.101 30 11.525z"></path><path id="XMLID_937_" d="m282.232 111.839v-10.968c0-19.852-13.766-36.553-32.278-41.129 11.991-4.215 20.611-15.62 20.611-29 .001-16.95-13.831-30.742-30.833-30.742s-30.833 13.792-30.833 30.743c0 13.38 8.62 24.785 20.611 29-14.918 3.687-26.745 15.25-30.778 29.991-4.033-14.741-15.86-26.304-30.778-29.991 11.991-4.215 20.611-15.62 20.611-29 .001-16.951-13.831-30.743-30.833-30.743s-30.833 13.792-30.833 30.743c0 13.38 8.62 24.785 20.611 29-18.512 4.576-32.278 21.276-32.278 41.129v10.968h167z"></path><path id="XMLID_938_" d="m84.333 197.588h231.826c15.439 0 28-12.524 28-27.918s-12.561-27.918-28-27.918h-50.948v24.927h-30v-24.927h-28v24.927h-30v-24.927h-28v24.927h-30v-24.927h-37.479v-46.531h-30.943v68.92c0 18.443 15.048 33.447 33.544 33.447z"></path></g></svg>