<!-- icon666.com - MILLIONS vector ICONS FREE --><svg viewBox="0 -19 512.002 512" xmlns="http://www.w3.org/2000/svg"><path d="m22.023438 398.050781c2.242187 0 4.496093-.746093 6.359374-2.285156 8.363282-6.898437 15.863282-10.015625 16.070313-10.101563 5.113281-2.050781 7.609375-7.847656 5.574219-12.972656-2.035156-5.132812-7.847656-7.644531-12.980469-5.605468-.421875.164062-10.386719 4.175781-21.390625 13.25-4.261719 3.515624-4.867188 9.816406-1.351562 14.078124 1.976562 2.398438 4.835937 3.636719 7.71875 3.636719zm0 0"></path><path d="m509.074219 441.863281c-3.90625-3.90625-10.238281-3.90625-14.144531 0-3.765626 3.765625-8.152344 6.675781-12.929688 8.648438v-401.261719c0-3.414062-1.820312-6.691406-4.722656-8.492188l-63.207032-39.25c-3.230468-2.007812-7.320312-2.007812-10.550781 0l-63.207031 39.25c-2.90625 1.800782-4.722656 5.078126-4.722656 8.492188v55.1875c-2.429688-2.035156-5.046875-3.851562-7.839844-5.410156-14.910156-8.324219-32.542969-7.90625-47.164062 1.113281l-54.273438 33.476563v-30.582032c0-5.519531-4.476562-10-10-10s-10 4.480469-10 10v42.042969c-9.402344 4.828125-19.078125 9.007813-28.921875 12.492187-5.207031 1.84375-7.933594 7.554688-6.089844 12.761719s7.554688 7.933594 12.765625 6.09375c12.578125-4.453125 24.898438-9.957031 36.777344-16.410156.128906-.066406.257812-.132813.382812-.203125 4.082032-2.226562 8.113282-4.5625 12.082032-7.011719l57.777344-35.636719c8.613281-5.3125 18.171874-5.554687 26.917968-.675781 10.847656 6.054688 17.585938 18.574219 17.585938 32.675781v.667969c0 13.671875-6.734375 26.398438-17.152344 32.425781l-75.363281 43.582032c-1.371094.777344-2.730469 1.578125-4.09375 2.367187-11.539063 6.671875-23.53125 12.308594-35.828125 16.886719-25.339844 9.425781-51.972656 14.324219-78.601563 14.324219h-17.929687c-2.53125 0-5.0625-.402344-7.472656-1.160157-12.394532-3.921874-21.558594-17.351562-21.558594-33.277343v-4.769531c0-16.359376 11.144531-29.667969 24.84375-29.667969h.242187c5.5-.027344 9.949219-4.496094 9.949219-10 0-5.523438-4.480469-10-10-10h-.191406c-24.726563 0-44.84375 22.28125-44.84375 49.667969v4.769531c0 24.515625 14.675781 45.289062 34.78125 52.085937.078125.03125.152344.066406.234375.097656l96.496093 34.113282c-22.453124 7.277344-45.761718 11.03125-69.152343 11.03125h-30.9375c-17.328125 0-31.421875 15.425781-31.421875 34.386718v34.804688c-12.097656 5.035156-26.25 13.886719-36.773438 29.410156-3.097656 4.574219-1.90625 10.792969 2.664063 13.890625 1.71875 1.164063 3.671875 1.722657 5.601562 1.722657 3.207031 0 6.355469-1.535157 8.289063-4.386719 6.613281-9.757813 15.355468-16.054688 23.484375-20.105469 5.144531 11.335938 15.828125 19.148438 28.15625 19.148438h53.058593c23.183594 0 46.355469-3.402344 68.785157-9.996094v23.332031c-15.578125 12.769531-38.675781 11.886719-53.210938-2.652344-3.90625-3.902343-10.238281-3.902343-14.144531 0-15.480469 15.480469-40.664062 15.480469-56.144531 0-3.902344-3.902343-10.234375-3.902343-14.140625 0-15.480469 15.480469-40.664063 15.480469-56.144532 0-3.90625-3.902343-10.238281-3.902343-14.140624 0-3.90625 3.90625-3.90625 10.238281 0 14.144531 21.042968 21.042969 54.023437 23.0625 77.355468 6.050782 20.859375 15.207031 49.429688 15.207031 70.285156.003906 20.859376 15.203125 49.421876 15.203125 70.28125.003906 10.144532 7.417969 22.339844 11.425782 35.148438 11.425782s25.003906-4.007813 35.148438-11.425782c20.855468 15.195313 49.417968 15.199219 70.273437 0 10.144531 7.417969 22.339844 11.425782 35.148437 11.425782 12.804688 0 25-4.003907 35.144532-11.421876 10.144531 7.417969 22.335937 11.421876 35.140625 11.421876 15.945312 0 30.9375-6.210938 42.214843-17.484376 3.910157-3.90625 3.910157-10.238281.003907-14.144531zm-47.074219-293.363281h-24.929688v-30.265625c0-15.527344-12.632812-28.160156-28.160156-28.160156-15.53125 0-28.164062 12.632812-28.164062 28.160156v30.265625h-25.152344v-89.25h106.40625zm-44.929688 0h-16.324218v-30.265625c0-4.5 3.664062-8.160156 8.164062-8.160156s8.160156 3.660156 8.160156 8.160156zm-61.476562 20h106.40625v10.5h-106.40625zm67.054688 173.609375h-25.183594v-34.789063h25.183594zm0-54.789063h-25.183594v-34.785156h25.183594zm-25.183594 74.789063h25.183594v34.785156h-25.183594zm25.183594-163.109375v33.53125h-25.183594v-33.53125zm-25.183594 217.894531h25.183594v26.820313c-7.210938 6.292968-16.167969 9.535156-25.183594 9.734375zm45.183594-217.894531h19.351562v254.1875c-7.074219-.859375-13.71875-3.585938-19.351562-7.941406zm-33.851563-177.226562 28.144531 17.480468h-56.292968zm-80.34375 177.796874c2.527344-1.464843 4.910156-3.144531 7.136719-5.011718v72.441406c-2.429688-2.035156-5.046875-3.851562-7.835938-5.40625-2.570312-1.433594-5.222656-2.589844-7.921875-3.503906l-50.421875-24.375zm-101.4375 95.585938v-38.296875c7.320313-3.34375 14.496094-7.03125 21.472656-11.042969l33.371094 16.132813c-.421875.242187-.847656.496093-1.269531.753906l-40.257813 24.832031c-1.980469 1.21875-10.855469 6.308594-13.316406 7.621094zm-72.722656-17.601562c13.890625-1.730469 27.628906-4.667969 41.027343-8.726563 3.929688-1.191406 7.828126-2.476563 11.695313-3.855469v31.421875l-53.132813-18.78125c.136719-.019531.273438-.039062.410157-.058593zm-74.320313 127.996093c2.429688-.46875 3.921875-.613281 4.035156-.621093 5.488282-.445313 9.589844-5.242188 9.164063-10.738282-.425781-5.507812-5.226563-9.617187-10.742187-9.199218-.316407.023437-2.078126.175781-4.839844.652343v-28.949219c0-7.933593 5.125-14.386718 11.421875-14.386718 3.769531 0 6.402343 2.347656 7.617187 3.730468 2.445313 2.789063 3.792969 6.574219 3.792969 10.65625v40.097657c0 7.796875-5.226563 14.386719-11.410156 14.386719-3.679688-.003907-6.949219-2.214844-9.039063-5.628907zm37.554688 5.625c1.851562-4.378906 2.894531-9.25 2.894531-14.386719v-40.09375c0-5.035156-.988281-9.925781-2.863281-14.386718h2.390625c34.796875 0 69.402343-7.617188 101.644531-22.203125 17.429688-6.957031 33.332031-18.074219 49.230469-27.878907 4.164062-2.566406 8.324219-5.132812 12.488281-7.699218 3.777344-2.332032 7.507812-5.003906 11.59375-6.769532 7.539062-3.25 15.960938-2.683593 23.101562 1.296876 10.828126 6.042968 17.558594 18.535156 17.582032 32.605468v.128906c-.023438 13.652344-6.746094 26.351563-17.144532 32.367188l-61.953124 35.816406c-35.292969 20.414063-74.859376 31.203125-114.421876 31.203125zm180.6875 30.6875c-1.875-1.875-4.417969-2.929687-7.070313-2.929687-2.652343 0-5.195312 1.054687-7.070312 2.929687-7.5 7.5-17.46875 11.628907-28.070313 11.628907-9.277344 0-18.070312-3.160157-25.144531-8.972657v-30.140625c12.21875-4.734375 24.144531-10.441406 35.644531-17.09375l61.953125-35.816406c2.527344-1.460938 4.90625-3.140625 7.132813-5.003906v95.929687c-3.011719.71875-6.128906 1.097657-9.304688 1.097657-10.601562 0-20.570312-4.128907-28.070312-11.628907zm63.214844-2.929687c-2.113282 0-4.148438.679687-5.839844 1.898437v-128.980469c0-.042968.003906-.085937.003906-.125 0-.042968-.003906-.085937-.003906-.125v-112.601562h21.875v249.582031c-3.21875-1.765625-6.242188-3.996093-8.964844-6.71875-1.875-1.875-4.417969-2.929687-7.070312-2.929687zm0 0"></path><path d="m133.710938 180.800781c1.589843 3.808594 5.4375 6.296875 9.566406 6.167969 4.121094-.128906 7.804687-2.878906 9.132812-6.777344 1.339844-3.9375.03125-8.464844-3.246094-11.042968-3.28125-2.585938-7.933593-2.875-11.492187-.664063-4.09375 2.546875-5.824219 7.851563-3.960937 12.316406zm0 0"></path></svg>