<?xml version="1.0" ?><svg viewBox="0 0 64 64" xmlns="http://www.w3.org/2000/svg"><g id="a"/><g id="b"/><g id="c"/><g id="d"/><g id="e"/><g id="f"/><g id="g"/><g id="h"/><g id="i"/><g id="j"/><g id="k"/><g id="l"/><g id="m"/><g id="n"/><g id="o"/><g id="p"/><g id="q"/><g id="r"/><g id="s"/><g id="t"/><g id="u"/><g id="v"/><g id="w"/><g id="x"/><g id="y"/><g id="a`"/><g id="aa"/><g id="ab"/><g id="ac"/><g id="ad"/><g id="ae"/><g id="af"/><g id="ag"/><g id="ah"/><g id="ai"/><g id="aj"/><g id="ak"/><g id="al"/><g id="am"/><g id="an"><path d="M49.81,24.96c4.28-1.32,7.42-5.26,7.42-9.96,0-5.77-4.7-10.47-10.47-10.47-5.43,0-9.85,4.17-10.37,9.47h-9.71l-2.64-7.77c-.45-1.33-1.7-2.23-3.11-2.23H10.06c-1.81,0-3.28,1.47-3.28,3.28s1.47,3.28,3.28,3.28h8.53l1.17,3.44H11.72c-1.82,0-3.67,1.35-4.13,3.01-.5,1.83-.76,3.73-.76,5.63,0,9.96,6.83,18.52,16.36,20.89l-1.27,9.08h-.8c-2.04,0-3.69,1.66-3.69,3.7s1.66,3.69,3.69,3.69h14.54c2.04,0,3.69-1.66,3.69-3.69s-1.66-3.7-3.69-3.7h-.8l-1.27-9.08c8.65-2.15,15.25-9.52,16.23-18.57Zm-21.42,17.23c-3.95,0-7.81-1.19-11.13-3.5,.92-.61,1.84-1.29,2.73-2.14,9.13-8.67,15.79-11.98,26.23-5.93-3.12,6.94-10.02,11.57-17.83,11.57Zm-5.84-26.19h2.7l3.84,11.28c-.78,.36-1.54,.77-2.29,1.22l-4.25-12.51ZM46.76,6.53c4.67,0,8.47,3.8,8.47,8.47,0,3.55-2.2,6.58-5.3,7.84,0-.07,.01-.13,.01-.2,0-.34-.05-.67-.07-1.01,2.49-1.18,4.23-3.69,4.23-6.63,0-4.05-3.29-7.35-7.35-7.35-3.71,0-6.75,2.77-7.24,6.35h-1.12c.5-4.19,4.04-7.47,8.37-7.47Zm-7.24,9.47c.49,3.57,3.54,6.34,7.24,6.34,.39,0,.77-.06,1.15-.12,0,.14,.03,.27,.03,.41,0,.24-.03,.47-.04,.71-.38,.05-.75,.12-1.15,.12-4.33,0-7.86-3.27-8.37-7.47h1.12Zm9.67,1.01c-.45-1.66-2.3-3.01-4.13-3.01h-3.54c.47-2.47,2.64-4.35,5.24-4.35,2.95,0,5.35,2.4,5.35,5.35,0,1.87-.97,3.51-2.42,4.47-.12-.83-.28-1.65-.5-2.46Zm-4.13-1.01c.91,0,1.98,.75,2.2,1.53,.24,.89,.41,1.8,.53,2.71-.33,.06-.67,.1-1.02,.1-2.6,0-4.77-1.87-5.24-4.34h3.54Zm-8.66,0c.51,5.3,4.94,9.47,10.37,9.47,.33,0,.64-.07,.97-.1-.16,1.16-.42,2.29-.78,3.37-6.28-3.54-11.44-3.8-16.01-2.21l-3.58-10.53h9.03Zm-16.15-6.76c-.14-.41-.52-.68-.95-.68H10.06c-.69,0-1.28-.59-1.28-1.28s.59-1.28,1.28-1.28h10.87c.55,0,1.04,.35,1.21,.87l2.42,7.13h-2.7l-1.62-4.76Zm-10.72,8.29c.21-.79,1.28-1.53,2.2-1.53h8.71l3.37,9.93c-4.42-.98-8.94-.05-13.98,2.81-.63-1.92-.99-3.97-.99-6.09,0-1.73,.23-3.44,.69-5.11Zm1.03,13.08c5.16-2.98,9.65-3.75,14.03-2.4l.48,1.42c-2.23,1.57-4.35,3.46-6.46,5.46-.99,.94-2.01,1.68-3.02,2.28-2.13-1.85-3.86-4.16-5.03-6.77Zm26.79,25.69c0,.93-.76,1.69-1.69,1.69h-14.54c-.93,0-1.69-.76-1.69-1.69s.76-1.7,1.69-1.7h14.54c.93,0,1.69,.76,1.69,1.7Zm-4.52-3.7h-8.89l1.22-8.69c1.06,.16,2.13,.27,3.23,.27s2.17-.11,3.23-.27l1.22,8.69Z"/><circle cx="39.99" cy="32.44" r="1"/><circle cx="31.4" cy="33.89" r="1"/><circle cx="17.82" cy="31.42" r="1"/><circle cx="28.61" cy="38.39" r="1"/></g><g id="ao"/><g id="ap"/><g id="aq"/><g id="ar"/><g id="as"/><g id="at"/><g id="au"/><g id="av"/><g id="aw"/><g id="ax"/></svg>